<svg width="32" height="32" viewBox="0 0 32 32" fill="none" xmlns="http://www.w3.org/2000/svg">
<rect width="32" height="32" rx="3" fill="black"/>
<path fill-rule="evenodd" clip-rule="evenodd" d="M4.00007 5.04228C3.9868 5.06556 5.99722 9.34621 8.46777 14.5549C10.9383 19.7636 13.1015 24.325 13.2749 24.6913C13.4483 25.0576 13.6096 25.3366 13.6334 25.3114C13.6958 25.245 15.0958 22.2882 15.0957 22.2231C15.0955 22.193 13.2705 18.3056 11.0399 13.5842L6.98424 5H5.50423C4.69021 5 4.01334 5.019 4.00007 5.04228ZM24.9609 5.12684C24.9315 5.19662 22.5902 10.1578 19.758 16.1517C16.9258 22.1456 14.6085 27.0731 14.6085 27.1018C14.6085 27.1322 15.223 27.1538 16.0877 27.1538H17.5669L22.7835 16.1463C25.6525 10.0921 28 5.1075 28 5.06934C28 5.01635 27.648 5 26.5072 5C25.0155 5 25.0143 5.00011 24.9609 5.12684Z" fill="white"/>
</svg>
